<svg width="33" height="33" viewBox="0 0 33 33" fill="none" xmlns="http://www.w3.org/2000/svg">
<path d="M8.18065 10.0193L8.29209 10.1233L8.33475 9.97764C8.39744 9.76605 8.47492 9.49636 8.55067 9.2232L8.39047 9.13475L8.30776 9.22233C8.23985 9.29431 8.08227 9.46254 7.99521 9.58134C7.93949 9.65765 7.94297 9.76171 8.00304 9.83542C8.05005 9.89179 8.111 9.95509 8.17978 10.0193H8.18065Z" fill="white"/>
<path d="M10.1309 11.9695L10.695 12.5315C10.9109 12.7457 11.1408 12.9746 11.3793 13.2157L18.0388 19.8747C18.0832 19.9189 18.1415 19.9432 18.2033 19.9432C18.3209 19.9432 18.4166 19.8591 18.4323 19.7446C18.7214 17.5775 19.2028 12.0476 19.5885 7.60421L19.6825 6.51331C19.9124 3.8511 20.1109 1.55137 20.2441 0.253214C20.2511 0.187309 20.2302 0.124873 20.1866 0.0763114C20.1422 0.0277499 20.0795 0 20.0142 0C19.9655 0 19.9185 0.0156092 19.8784 0.0442258C18.4715 1.06835 16.6292 2.48011 14.8471 3.8459L14.3073 4.25954C13.2181 5.09376 11.9827 6.03984 11.0668 6.72057C10.9144 6.84717 10.7455 6.96944 10.5618 7.10299C10.1021 7.43858 9.66856 7.75597 9.52578 8.17394C9.22715 9.00469 9.04258 9.8207 9.00601 10.4754V10.5058C9.00862 10.7191 9.08263 10.8943 9.24805 11.0738C9.46048 11.3018 9.8009 11.6418 10.13 11.9704L10.1309 11.9695Z" fill="white"/>
<path d="M19.5319 14.5702C19.3369 16.8161 19.1532 18.9164 19.0487 19.9267C19.0426 19.9822 19.0601 20.0359 19.0975 20.0767C19.1341 20.1175 19.1872 20.1409 19.242 20.1409C19.276 20.1409 19.3099 20.1313 19.3404 20.114C20.2589 19.5841 21.3132 18.9468 22.2431 18.3849L22.4973 18.2314L22.5948 18.1707L23.1059 17.8619C23.5708 17.581 24.0253 17.307 24.4597 17.0494C25.3512 16.5404 25.6385 16.1996 26.1783 15.4252C26.3977 15.1182 27.0072 14.2606 27.405 13.7013L27.769 13.1896C27.9091 12.9893 28.0641 12.7734 28.2208 12.5549L28.2443 12.5184C28.5934 12.032 28.9861 11.4804 29.2499 11.0746C29.4876 10.7269 29.4841 10.5595 29.2342 10.2621C28.7632 9.68887 27.8517 8.5286 26.8861 7.29982L26.638 6.98417C24.8976 4.76768 22.7315 2.00922 21.234 0.215044C21.1966 0.169951 21.1417 0.143936 21.0834 0.143936C20.9841 0.143936 20.9006 0.217646 20.8884 0.315636C20.4618 3.88404 19.9063 10.2716 19.538 14.4982L19.5319 14.571V14.5702Z" fill="white"/>
<path d="M17.862 20.6985C17.8795 20.6352 17.8629 20.5693 17.8176 20.5216C16.5282 19.1662 14.8497 17.496 13.2259 15.8813L13.1615 15.8189C12.068 14.7323 10.9371 13.6085 10.0003 12.6503C9.60413 12.2557 9.23934 11.8906 8.92156 11.568L8.68562 11.3313C8.27816 10.922 7.96561 10.6081 7.76449 10.4147C7.72967 10.3809 7.68352 10.3618 7.63477 10.3618C7.56512 10.3618 7.50156 10.4008 7.46935 10.4624C7.29435 10.7963 7.0114 11.3643 6.78503 11.8221L6.47248 12.4499C6.31751 12.7613 6.15035 13.096 5.97187 13.4498L3.34866 18.697C2.18811 21.0176 0.982292 23.4309 0.0193759 25.3716C-0.00935487 25.4297 -0.00587248 25.4965 0.028082 25.5511C0.0629072 25.6066 0.122981 25.6396 0.188278 25.6396C0.20569 25.6396 0.222232 25.637 0.239645 25.6327L17.7323 20.8285C17.7976 20.8103 17.8464 20.7618 17.8647 20.6976L17.862 20.6985Z" fill="white"/>
<path d="M27.1978 14.9543C27.1517 15.0202 27.1456 15.1009 27.1821 15.1711C27.2187 15.2414 27.2927 15.2865 27.3693 15.2865C27.4068 15.2865 27.4442 15.2761 27.4781 15.2561C28.0946 14.8893 29.2751 14.1791 30.2476 13.5374C30.7456 13.1983 30.4801 12.6052 30.2232 12.0328L30.2023 11.986C30.1162 11.803 30.0378 11.6556 29.9699 11.5498C29.9307 11.4883 29.8637 11.4518 29.7905 11.4518C29.727 11.4518 29.6678 11.4805 29.6277 11.529C29.5041 11.6799 29.343 11.9071 29.2534 12.0354L27.1978 14.9543Z" fill="white"/>
<path d="M24.0017 26.1209L23.8886 26.0246C21.6894 24.1368 19.6129 22.3539 18.8006 21.6237C18.7484 21.576 18.7031 21.5388 18.6509 21.5145L18.5786 21.4807L18.5333 21.5466C18.5159 21.5726 18.4941 21.6081 18.4698 21.6567C18.266 22.0582 17.8516 23.071 17.6392 23.8055C17.2988 24.893 17.8978 26.0515 18.5325 27.047L18.5525 27.0739C18.7144 27.2985 18.9373 27.4216 19.2446 27.5474C19.5868 27.6905 20.0761 27.8925 20.689 28.1448L26.6511 30.6024C27.4477 30.9267 28.2774 31.271 28.9478 31.5502L29.2011 31.6552C29.6591 31.8451 30.104 32.0306 30.5384 32.2093C30.5602 32.2179 30.582 32.2223 30.6046 32.2223C30.6734 32.2223 30.7369 32.1781 30.7622 32.1121C30.7874 32.0471 30.7691 31.9743 30.716 31.9274C29.0732 30.4775 26.3786 28.1639 24.0009 26.1226L24.0017 26.1209Z" fill="white"/>
<path d="M32.9187 30.6796C32.6819 28.9643 32.3302 26.3186 32.0202 23.9842L32.0054 23.874C31.4656 19.8166 30.9076 15.6212 30.6681 14.0334L30.649 13.9042L30.4975 13.9822C30.1719 14.1713 29.5442 14.5546 28.8172 14.9986C28.3444 15.2873 27.8081 15.6142 27.2318 15.9637C25.198 17.1994 22.5608 18.8072 20.4652 20.0845L19.2081 20.8563C19.1462 20.8936 19.1071 20.9569 19.101 21.028C19.094 21.0982 19.121 21.1659 19.1732 21.2136C19.4309 21.4451 19.841 21.8024 20.3329 22.2299L20.366 22.2585C20.7935 22.6297 21.2941 23.0658 21.8443 23.5489L32.5269 32.8735C32.5531 32.8961 32.5844 32.9073 32.6184 32.9073C32.6802 32.9073 32.7341 32.8683 32.7533 32.8085C32.9335 32.2353 32.9892 31.5233 32.9196 30.6796H32.9187Z" fill="white"/>
<path d="M17.2038 25.6292L17.1055 25.428L17.0306 25.6387C17.0019 25.7202 16.9662 25.8217 16.9461 25.8529L16.94 25.8633L16.9366 25.8746C16.9017 25.9847 16.8486 26.1087 16.7894 26.2457C16.7529 26.3307 16.6963 26.4608 16.6553 26.5744C16.6353 26.6299 16.6397 26.6915 16.6667 26.7435C16.6945 26.7955 16.7433 26.8337 16.8007 26.8484C16.9339 26.8823 17.0976 26.9109 17.2065 26.9291C17.324 26.949 17.4694 26.9733 17.566 27.0011C17.6139 27.0071 17.6609 27.0158 17.7062 27.0253L17.8899 27.0635L17.8107 26.8944C17.6435 26.538 17.391 26.0099 17.2038 25.6275V25.6292Z" fill="white"/>
<path d="M17.7994 22.2602C17.8534 22.118 17.923 21.935 17.9839 21.7659C18.0075 21.7 17.9979 21.6307 17.9578 21.5743C17.9186 21.5188 17.8542 21.485 17.7872 21.485C17.7672 21.485 17.748 21.4876 17.7289 21.4928C16.8199 21.7495 15.0821 22.2264 13.0562 22.7823L12.351 22.9757C9.20975 23.8376 5.30062 24.9112 2.47717 25.7003C2.37531 25.7289 2.31262 25.8217 2.32481 25.9258C2.337 26.0307 2.41884 26.107 2.52419 26.1122C5.37201 26.2518 9.07915 26.4079 11.7859 26.5206L12.0236 26.5302C13.7919 26.6039 15.0908 26.6585 15.6994 26.6889H15.7064C16.086 26.6889 16.1521 26.5146 16.3315 26.0489C16.3776 25.9284 16.4307 25.7922 16.4908 25.6613C16.7781 24.9198 17.223 23.7622 17.5748 22.8447L17.8002 22.2585L17.7994 22.2602Z" fill="white"/>
</svg>
