<svg width="33" height="33" viewBox="0 0 33 33" fill="none" xmlns="http://www.w3.org/2000/svg">
<path d="M8.18062 10.0193L8.29206 10.1233L8.33472 9.97765C8.39741 9.76607 8.47489 9.49638 8.55064 9.22322L8.39044 9.13477L8.30773 9.22235C8.23982 9.29432 8.08224 9.46256 7.99518 9.58136C7.93945 9.65767 7.94294 9.76173 8.00301 9.83544C8.05002 9.8918 8.11097 9.95511 8.17975 10.0193H8.18062Z" fill="white"/>
<path d="M10.1307 11.9695L10.6949 12.5315C10.9108 12.7457 11.1406 12.9746 11.3792 13.2157L18.0386 19.8747C18.083 19.9189 18.1414 19.9432 18.2032 19.9432C18.3207 19.9432 18.4165 19.8591 18.4322 19.7446C18.7212 17.5775 19.2027 12.0476 19.5884 7.60421L19.6824 6.51331C19.9122 3.8511 20.1107 1.55137 20.2439 0.253214C20.2509 0.187309 20.23 0.124873 20.1865 0.0763114C20.1421 0.0277499 20.0794 0 20.0141 0C19.9653 0 19.9183 0.0156092 19.8783 0.0442258C18.4713 1.06835 16.6291 2.48011 14.8469 3.8459L14.3071 4.25954C13.218 5.09376 11.9825 6.03984 11.0666 6.72057C10.9143 6.84717 10.7454 6.96944 10.5617 7.10299C10.102 7.43858 9.66841 7.75597 9.52563 8.17394C9.227 9.00469 9.04243 9.8207 9.00586 10.4754V10.5058C9.00847 10.7191 9.08247 10.8943 9.24789 11.0738C9.46033 11.3018 9.80074 11.6418 10.1298 11.9704L10.1307 11.9695Z" fill="white"/>
<path d="M19.5318 14.5703C19.3367 16.8162 19.153 18.9165 19.0486 19.9268C19.0425 19.9823 19.0599 20.036 19.0973 20.0768C19.1339 20.1176 19.187 20.141 19.2418 20.141C19.2758 20.141 19.3097 20.1314 19.3402 20.1141C20.2587 19.5843 21.3131 18.9469 22.2429 18.385L22.4971 18.2315L22.5946 18.1708L23.1057 17.8621C23.5706 17.5811 24.0251 17.3071 24.4595 17.0495C25.351 16.5405 25.6383 16.1997 26.1781 15.4253C26.3975 15.1183 27.007 14.2607 27.4049 13.7014L27.7688 13.1897C27.9089 12.9894 28.0639 12.7735 28.2206 12.555L28.2441 12.5186C28.5933 12.0321 28.9859 11.4806 29.2497 11.0747C29.4874 10.727 29.4839 10.5596 29.234 10.2622C28.763 9.68898 27.8515 8.52871 26.886 7.29993L26.6378 6.98428C24.8974 4.76779 22.7313 2.00932 21.2338 0.215151C21.1964 0.170058 21.1416 0.144043 21.0832 0.144043C20.984 0.144043 20.9004 0.217753 20.8882 0.315743C20.4616 3.88415 19.9061 10.2717 19.5379 14.4983L19.5318 14.5711V14.5703Z" fill="white"/>
<path d="M17.862 20.6985C17.8795 20.6352 17.8629 20.5693 17.8176 20.5216C16.5282 19.1662 14.8497 17.496 13.2259 15.8814L13.1615 15.8189C12.068 14.7324 10.9371 13.6085 10.0003 12.6503C9.60413 12.2557 9.23934 11.8906 8.92156 11.568L8.68562 11.3313C8.27816 10.922 7.96561 10.6081 7.76449 10.4147C7.72967 10.3809 7.68352 10.3618 7.63477 10.3618C7.56512 10.3618 7.50156 10.4008 7.46935 10.4624C7.29435 10.7963 7.0114 11.3643 6.78503 11.8221L6.47248 12.45C6.31751 12.7613 6.15035 13.096 5.97187 13.4498L3.34866 18.6971C2.18811 21.0176 0.982292 23.4309 0.0193759 25.3717C-0.00935487 25.4298 -0.00587248 25.4965 0.028082 25.5512C0.0629072 25.6067 0.122981 25.6396 0.188278 25.6396C0.20569 25.6396 0.222232 25.637 0.239645 25.6327L17.7323 20.8286C17.7976 20.8103 17.8464 20.7618 17.8647 20.6976L17.862 20.6985Z" fill="white"/>
<path d="M27.1976 14.9544C27.1514 15.0203 27.1454 15.101 27.1819 15.1712C27.2185 15.2414 27.2925 15.2865 27.3691 15.2865C27.4065 15.2865 27.444 15.2761 27.4779 15.2562C28.0943 14.8894 29.2749 14.1792 30.2474 13.5374C30.7454 13.1984 30.4799 12.6052 30.223 12.0329L30.2021 11.9861C30.1159 11.8031 30.0376 11.6557 29.9697 11.5499C29.9305 11.4883 29.8635 11.4519 29.7903 11.4519C29.7268 11.4519 29.6676 11.4805 29.6275 11.5291C29.5039 11.68 29.3428 11.9072 29.2531 12.0355L27.1976 14.9544Z" fill="white"/>
<path d="M24.0018 26.1209L23.8887 26.0247C21.6894 24.1369 19.613 22.354 18.8007 21.6238C18.7485 21.5761 18.7032 21.5388 18.651 21.5145L18.5787 21.4807L18.5334 21.5466C18.516 21.5726 18.4942 21.6082 18.4699 21.6567C18.2661 22.0582 17.8517 23.0711 17.6393 23.8056C17.2989 24.893 17.8979 26.0516 18.5325 27.0471L18.5526 27.074C18.7145 27.2986 18.9374 27.4217 19.2447 27.5474C19.5869 27.6905 20.0762 27.8926 20.6891 28.1449L26.6512 30.6025C27.4478 30.9268 28.2775 31.2711 28.9479 31.5503L29.2012 31.6552C29.6592 31.8451 30.1041 32.0307 30.5385 32.2093C30.5603 32.218 30.582 32.2223 30.6047 32.2223C30.6735 32.2223 30.737 32.1781 30.7623 32.1122C30.7875 32.0472 30.7692 31.9743 30.7161 31.9275C29.0732 30.4776 26.3787 28.164 24.001 26.1227L24.0018 26.1209Z" fill="white"/>
<path d="M32.9189 30.6797C32.6821 28.9644 32.3304 26.3187 32.0204 23.9843L32.0056 23.8741C31.4659 19.8167 30.9078 15.6213 30.6684 14.0335L30.6492 13.9043L30.4977 13.9823C30.1721 14.1714 29.5444 14.5547 28.8174 14.9987C28.3446 15.2874 27.8083 15.6144 27.232 15.9638C25.1982 17.1995 22.5611 18.8073 20.4655 20.0846L19.2083 20.8564C19.1465 20.8937 19.1073 20.957 19.1012 21.0281C19.0942 21.0983 19.1212 21.166 19.1734 21.2137C19.4311 21.4452 19.8412 21.8025 20.3331 22.23L20.3662 22.2586C20.7937 22.6298 21.2943 23.0659 21.8445 23.549L32.5271 32.8736C32.5533 32.8962 32.5846 32.9075 32.6186 32.9075C32.6804 32.9075 32.7344 32.8684 32.7535 32.8086C32.9337 32.2354 32.9895 31.5235 32.9198 30.6797H32.9189Z" fill="white"/>
<path d="M17.204 25.6292L17.1056 25.428L17.0308 25.6387C17.002 25.7202 16.9663 25.8217 16.9463 25.8529L16.9402 25.8633L16.9367 25.8746C16.9019 25.9847 16.8488 26.1087 16.7896 26.2457C16.753 26.3307 16.6964 26.4608 16.6555 26.5744C16.6355 26.6299 16.6399 26.6914 16.6668 26.7435C16.6947 26.7955 16.7435 26.8337 16.8009 26.8484C16.9341 26.8822 17.0978 26.9108 17.2066 26.929C17.3242 26.949 17.4696 26.9733 17.5662 27.001C17.6141 27.0071 17.6611 27.0158 17.7064 27.0253L17.8901 27.0635L17.8109 26.8944C17.6437 26.538 17.3912 26.0098 17.204 25.6274V25.6292Z" fill="white"/>
<path d="M17.7993 22.2604C17.8533 22.1181 17.9229 21.9352 17.9839 21.7661C18.0074 21.7002 17.9978 21.6308 17.9578 21.5744C17.9186 21.5189 17.8542 21.4851 17.7871 21.4851C17.7671 21.4851 17.7479 21.4877 17.7288 21.4929C16.8199 21.7496 15.0821 22.2265 13.0561 22.7824L12.3509 22.9758C9.20968 23.8377 5.30056 24.9113 2.47711 25.7004C2.37525 25.729 2.31256 25.8218 2.32475 25.9259C2.33694 26.0308 2.41878 26.1071 2.52412 26.1123C5.37195 26.2519 9.07909 26.408 11.7859 26.5208L12.0236 26.5303C13.7918 26.604 15.0908 26.6586 15.6994 26.689H15.7063C16.0859 26.689 16.1521 26.5147 16.3314 26.049C16.3776 25.9285 16.4307 25.7923 16.4908 25.6614C16.7781 24.92 17.223 23.7623 17.5747 22.8448L17.8002 22.2586L17.7993 22.2604Z" fill="white"/>
</svg>
