<svg width="135" height="33" viewBox="0 0 135 33" fill="none" xmlns="http://www.w3.org/2000/svg">
<path d="M8.11622 9.94038L8.22679 10.0436L8.26911 9.89909C8.3313 9.68916 8.40818 9.4216 8.48333 9.15059L8.32439 9.06284L8.24234 9.14973C8.17496 9.22114 8.01862 9.38804 7.93224 9.50591C7.87696 9.58162 7.88041 9.68486 7.94001 9.75799C7.98666 9.81391 8.04712 9.87672 8.11536 9.94038H8.11622Z" fill="white"/>
<path d="M10.0511 11.8753L10.6108 12.4328C10.825 12.6453 11.053 12.8724 11.2897 13.1116L17.8967 19.7182C17.9408 19.762 17.9986 19.7861 18.06 19.7861C18.1766 19.7861 18.2716 19.7027 18.2871 19.5891C18.5739 17.4391 19.0516 11.9527 19.4342 7.54433L19.5275 6.46202C19.7555 3.82077 19.9525 1.53915 20.0846 0.25122C20.0915 0.185834 20.0708 0.12389 20.0276 0.0757104C19.9836 0.0275313 19.9214 0 19.8566 0C19.8082 0 19.7616 0.0154863 19.7219 0.0438776C18.326 1.05994 16.4983 2.46058 14.7301 3.81561L14.1946 4.226C13.114 5.05364 11.8883 5.99228 10.9796 6.66764C10.8284 6.79325 10.6609 6.91456 10.4786 7.04705C10.0225 7.38 9.59239 7.69489 9.45073 8.10957C9.15446 8.93378 8.97134 9.74336 8.93506 10.3929V10.423C8.93765 10.6347 9.01107 10.8085 9.17519 10.9866C9.38595 11.2128 9.72368 11.5501 10.0502 11.8761L10.0511 11.8753Z" fill="white"/>
<path d="M19.3781 14.4555C19.1846 16.6837 19.0024 18.7675 18.8987 19.7698C18.8927 19.8248 18.9099 19.8782 18.9471 19.9186C18.9834 19.9591 19.036 19.9823 19.0905 19.9823C19.1242 19.9823 19.1578 19.9728 19.1881 19.9556C20.0993 19.4299 21.1454 18.7976 22.0679 18.2401L22.3201 18.0878L22.4169 18.0276L22.9239 17.7213C23.3851 17.4426 23.836 17.1707 24.2671 16.9152C25.1516 16.4101 25.4366 16.072 25.9721 15.3037C26.1898 14.9992 26.7945 14.1483 27.1892 13.5934L27.5503 13.0858C27.6893 12.8871 27.8431 12.6728 27.9986 12.456L28.0219 12.4199C28.3682 11.9372 28.7578 11.3901 29.0195 10.9874C29.2553 10.6424 29.2519 10.4764 29.004 10.1813C28.5367 9.61259 27.6323 8.46146 26.6744 7.24235L26.4282 6.92919C24.7015 4.73016 22.5525 1.99342 21.0668 0.21337C21.0296 0.168632 20.9752 0.142822 20.9173 0.142822C20.8189 0.142822 20.736 0.215952 20.7239 0.31317C20.3006 3.85347 19.7495 10.1907 19.3841 14.384L19.3781 14.4563V14.4555Z" fill="white"/>
<path d="M17.7214 20.5355C17.7387 20.4727 17.7222 20.4073 17.6773 20.36C16.3981 19.0153 14.7327 17.3582 13.1218 15.7563L13.0579 15.6943C11.973 14.6163 10.8509 13.5013 9.92151 12.5507C9.5285 12.1592 9.16657 11.797 8.8513 11.4769L8.61722 11.2421C8.21297 10.836 7.90288 10.5245 7.70334 10.3327C7.66879 10.2991 7.62301 10.2802 7.57464 10.2802C7.50554 10.2802 7.44249 10.3189 7.41053 10.38C7.23691 10.7112 6.95618 11.2748 6.7316 11.729L6.42151 12.3519C6.26775 12.6608 6.10191 12.9929 5.92484 13.3439L3.32229 18.5498C2.17088 20.8521 0.974556 23.2464 0.0192233 25.1719C-0.0092812 25.2295 -0.00582624 25.2957 0.0278609 25.3499C0.0624118 25.405 0.122012 25.4377 0.186795 25.4377C0.204071 25.4377 0.220482 25.4351 0.237758 25.4308L17.5927 20.6645C17.6575 20.6465 17.7058 20.5983 17.724 20.5346L17.7214 20.5355Z" fill="white"/>
<path d="M26.9837 14.8366C26.9379 14.902 26.9318 14.982 26.9681 15.0517C27.0044 15.1214 27.0778 15.1661 27.1538 15.1661C27.191 15.1661 27.2281 15.1558 27.2618 15.136C27.8733 14.7721 29.0446 14.0674 30.0095 13.4308C30.5035 13.0944 30.2401 12.5059 29.9853 11.9381L29.9645 11.8916C29.879 11.7101 29.8013 11.5638 29.7339 11.4589C29.695 11.3978 29.6285 11.3617 29.556 11.3617C29.4929 11.3617 29.4342 11.3901 29.3944 11.4382C29.2718 11.5879 29.112 11.8133 29.023 11.9407L26.9837 14.8366Z" fill="white"/>
<path d="M23.8127 25.9152L23.7004 25.8197C21.5185 23.9467 19.4584 22.1779 18.6525 21.4534C18.6007 21.4061 18.5558 21.3691 18.504 21.345L18.4323 21.3115L18.3874 21.3769C18.3701 21.4027 18.3485 21.438 18.3243 21.4861C18.1222 21.8845 17.711 22.8894 17.5003 23.6181C17.1625 24.6969 17.7568 25.8463 18.3865 26.834L18.4064 26.8607C18.567 27.0835 18.7881 27.2057 19.0931 27.3304C19.4325 27.4724 19.918 27.6729 20.526 27.9232L26.4412 30.3614C27.2315 30.6832 28.0547 31.0247 28.7198 31.3018L28.9712 31.4059C29.4255 31.5943 29.8669 31.7784 30.2979 31.9556C30.3195 31.9642 30.3411 31.9685 30.3636 31.9685C30.4318 31.9685 30.4948 31.9247 30.5199 31.8593C30.5449 31.7947 30.5268 31.7225 30.4741 31.676C28.8442 30.2375 26.1708 27.9421 23.8118 25.9169L23.8127 25.9152Z" fill="white"/>
<path d="M32.6595 30.438C32.4245 28.7362 32.0756 26.1113 31.7681 23.7953L31.7534 23.686C31.2178 19.6605 30.6642 15.4982 30.4266 13.9229L30.4076 13.7947L30.2573 13.8721C29.9343 14.0597 29.3115 14.44 28.5902 14.8805C28.1212 15.167 27.5891 15.4913 27.0173 15.838C24.9995 17.064 22.3832 18.6591 20.3041 19.9264L19.0568 20.6921C18.9955 20.7291 18.9566 20.7919 18.9505 20.8624C18.9436 20.9321 18.9704 20.9992 19.0222 21.0465C19.2779 21.2762 19.6847 21.6307 20.1728 22.0548L20.2056 22.0832C20.6297 22.4515 21.1264 22.8842 21.6723 23.3634L32.2708 32.6147C32.2967 32.637 32.3278 32.6482 32.3615 32.6482C32.4228 32.6482 32.4763 32.6095 32.4954 32.5501C32.6742 31.9815 32.7294 31.2751 32.6603 30.438H32.6595Z" fill="white"/>
<path d="M17.0684 25.4274L16.9708 25.2278L16.8965 25.4368C16.868 25.5177 16.8326 25.6183 16.8128 25.6493L16.8067 25.6596L16.8033 25.6708C16.7687 25.7801 16.716 25.9031 16.6573 26.0391C16.621 26.1234 16.5649 26.2524 16.5243 26.3651C16.5044 26.4202 16.5087 26.4813 16.5355 26.5329C16.5631 26.5845 16.6115 26.6224 16.6685 26.637C16.8007 26.6705 16.9631 26.6989 17.071 26.717C17.1876 26.7368 17.3319 26.7609 17.4278 26.7884C17.4753 26.7944 17.5219 26.803 17.5668 26.8125L17.7491 26.8504L17.6705 26.6826C17.5046 26.329 17.2542 25.805 17.0684 25.4256V25.4274Z" fill="white"/>
<path d="M17.6592 22.0849C17.7128 21.9438 17.7819 21.7623 17.8424 21.5945C17.8657 21.5292 17.8562 21.4603 17.8165 21.4044C17.7776 21.3493 17.7137 21.3158 17.6472 21.3158C17.6273 21.3158 17.6083 21.3184 17.5893 21.3235C16.6875 21.5782 14.9634 22.0514 12.9534 22.6029L12.2538 22.7947C9.13726 23.6499 5.25892 24.715 2.45771 25.4979C2.35665 25.5263 2.29446 25.6184 2.30655 25.7216C2.31864 25.8257 2.39984 25.9014 2.50435 25.9066C5.32975 26.0451 9.0077 26.2 11.6932 26.3118L11.929 26.3213C13.6833 26.3944 14.972 26.4486 15.5758 26.4787H15.5827C15.9593 26.4787 16.025 26.3058 16.2029 25.8438C16.2487 25.7242 16.3014 25.5891 16.361 25.4592C16.646 24.7236 17.0874 23.5751 17.4364 22.6648L17.6601 22.0832L17.6592 22.0849Z" fill="white"/>
<path d="M125.433 23.9017V13.1103H128.271V14.4928C128.818 13.6674 129.892 12.8627 131.392 12.8627C133.581 12.8627 135 14.4928 135 16.845V23.9017H132.162V17.5259C132.162 16.2054 131.554 15.2975 130.298 15.2975C129.203 15.2975 128.271 16.1022 128.271 17.5878V23.9017H125.433Z" fill="white"/>
<path d="M120.281 11.509V8.59433H123.372V11.509H120.281ZM123.372 12.9349V23.9017H120.303V12.9349H123.372Z" fill="white"/>
<path d="M114.338 17.0754C114.961 16.9936 115.294 16.7278 115.294 16.1756C115.294 15.4803 114.712 14.9895 113.612 14.9895C112.449 14.9895 111.806 15.5621 111.681 16.4006H108.858C109.065 14.4987 110.747 12.8627 113.653 12.8627C116.726 12.8627 118.096 14.4169 118.096 16.8505V21.6358C118.096 22.3516 118.138 23.0469 118.221 23.8035H115.48C115.397 23.415 115.356 23.006 115.335 22.5765C114.754 23.4559 113.612 24.0489 112.138 24.0489C110.062 24.0489 108.359 22.8015 108.359 20.7769C108.359 18.5069 110.207 17.648 112.408 17.3413L114.338 17.0754ZM111.1 20.6133C111.1 21.4722 111.785 21.963 112.781 21.963C114.152 21.963 115.294 21.1655 115.294 19.6522V18.8137L112.989 19.1613C111.909 19.325 111.1 19.6726 111.1 20.6133Z" fill="white"/>
<path d="M97.0259 23.9017V8.59433H99.9073V14.3398C100.463 13.5011 101.554 12.6833 103.077 12.6833C105.3 12.6833 106.74 14.3398 106.74 16.7303V23.9017H103.859V17.4223C103.859 16.0803 103.241 15.1576 101.965 15.1576C100.854 15.1576 99.9073 15.9754 99.9073 17.4852V23.9017H97.0259Z" fill="white"/>
<path d="M82.1601 16.3952C82.1601 11.7809 85.1605 8.59433 89.1407 8.59433C92.6514 8.59433 94.8966 10.6428 95.4069 13.6846H92.3452C91.937 12.2154 90.9369 11.305 89.1203 11.305C86.6709 11.305 85.2013 13.457 85.2013 16.3952C85.2013 19.3335 86.6709 21.4855 89.1203 21.4855C90.9369 21.4855 91.937 20.575 92.3452 19.1059H95.4069C94.8966 22.1476 92.6514 24.1961 89.1407 24.1961C85.1605 24.1961 82.1601 21.0095 82.1601 16.3952Z" fill="white"/>
<path d="M76.7167 17.2226C77.3302 17.1408 77.6574 16.875 77.6574 16.3228C77.6574 15.6275 77.0848 15.1367 76.0009 15.1367C74.8556 15.1367 74.2216 15.7093 74.0989 16.5478H71.3175C71.5221 14.6459 73.1786 13.0099 76.0418 13.0099C79.0685 13.0099 80.4183 14.5641 80.4183 16.9977V21.783C80.4183 22.4987 80.4592 23.194 80.541 23.9507H77.8415C77.7597 23.5621 77.7188 23.1531 77.6983 22.7237C77.1257 23.603 76.0009 24.1961 74.5488 24.1961C72.5037 24.1961 70.8267 22.9486 70.8267 20.9241C70.8267 18.6541 72.6469 17.7952 74.8147 17.4885L76.7167 17.2226ZM73.5263 20.7605C73.5263 21.6194 74.2012 22.1102 75.1828 22.1102C76.5326 22.1102 77.6574 21.3126 77.6574 19.7993V18.9609L75.3873 19.3085C74.3239 19.4721 73.5263 19.8198 73.5263 20.7605Z" fill="white"/>
<path d="M69.7964 13.0099V15.969H69.137C67.3855 15.969 66.5406 16.9134 66.5406 18.4874V24.0489H63.6146V13.0729H66.5406V14.8358C67.0352 13.7864 68.1067 13.0099 69.4873 13.0099H69.7964Z" fill="white"/>
<path d="M61.9955 13.0099V23.9452H59.1715V22.5443C58.6269 23.3807 57.6184 24.1961 56.166 24.1961C53.9674 24.1961 52.5756 22.5443 52.5756 20.1607V13.0099H55.3995V19.4916C55.3995 20.8089 55.9643 21.7498 57.1948 21.7498C58.2638 21.7498 59.1715 20.9343 59.1715 19.408V13.0099H61.9955Z" fill="white"/>
<path d="M42.4114 8.74152H45.7928L51.5453 24.0489H48.4113L47.0711 20.3793H41.0712L39.731 24.0489H36.6794L42.4114 8.74152ZM44.0608 12.1595L42.0196 17.7792H46.1227L44.0608 12.1595Z" fill="white"/>
</svg>
