<?xml version="1.0" encoding="UTF-8"?>
<svg id="Layer_2" data-name="Layer 2" xmlns="http://www.w3.org/2000/svg" viewBox="0 0 512 512">
  <defs>
    <style>
      .cls-1 {
        fill: #3acdc3;
      }

      .cls-1, .cls-2 {
        stroke-width: 0px;
      }

      .cls-2 {
        fill: none;
      }
    </style>
  </defs>
  <g id="Layer_2-2" data-name="Layer 2">
    <g>
      <rect class="cls-2" width="512" height="512"/>
      <g>
        <path class="cls-1" d="M143.94,181.81l1.28,1.2.49-1.68c.72-2.44,1.61-5.55,2.48-8.7l-1.84-1.02-.95,1.01c-.78.83-2.59,2.77-3.59,4.14-.64.88-.6,2.08.09,2.93.54.65,1.24,1.38,2.03,2.12Z"/>
        <path class="cls-1" d="M166.34,204.3l6.48,6.48c2.48,2.47,5.12,5.11,7.86,7.89l76.49,76.79c.51.51,1.18.79,1.89.79,1.35,0,2.45-.97,2.63-2.29,3.32-24.99,8.85-88.76,13.28-140l1.08-12.58c2.64-30.7,4.92-57.22,6.45-72.19.08-.76-.16-1.48-.66-2.04-.51-.56-1.23-.88-1.98-.88-.56,0-1.1.18-1.56.51-16.16,11.81-37.32,28.09-57.79,43.84l-6.2,4.77c-12.51,9.62-26.7,20.53-37.22,28.38-1.75,1.46-3.69,2.87-5.8,4.41-5.28,3.87-10.26,7.53-11.9,12.35-3.43,9.58-5.55,18.99-5.97,26.54v.35c.03,2.46.88,4.48,2.78,6.55,2.44,2.63,6.35,6.55,10.13,10.34Z"/>
        <path class="cls-1" d="M274.32,234.29c-2.24,25.9-4.35,50.12-5.55,61.77-.07.64.13,1.26.56,1.73.42.47,1.03.74,1.66.74.39,0,.78-.11,1.13-.31,10.55-6.11,22.66-13.46,33.34-19.94l2.92-1.77,1.12-.7,5.87-3.56c5.34-3.24,10.56-6.4,15.55-9.37,10.24-5.87,13.54-9.8,19.74-18.73,2.52-3.54,9.52-13.43,14.09-19.88l4.18-5.9c1.61-2.31,3.39-4.8,5.19-7.32l.27-.42c4.01-5.61,8.52-11.97,11.55-16.65,2.73-4.01,2.69-5.94-.18-9.37-5.41-6.61-15.88-19.99-26.97-34.16l-2.85-3.64c-19.99-25.56-44.87-57.37-62.07-78.06-.43-.52-1.06-.82-1.73-.82-1.14,0-2.1.85-2.24,1.98-4.9,41.15-11.28,114.81-15.51,163.55l-.07.84Z"/>
        <path class="cls-1" d="M255.14,304.96c.2-.73.01-1.49-.51-2.04-14.81-15.63-34.09-34.89-52.74-53.51l-.74-.72c-12.56-12.53-25.55-25.49-36.31-36.54-4.55-4.55-8.74-8.76-12.39-12.48l-2.71-2.73c-4.68-4.72-8.27-8.34-10.58-10.57-.4-.39-.93-.61-1.49-.61-.8,0-1.53.45-1.9,1.16-2.01,3.85-5.26,10.4-7.86,15.68l-3.59,7.24c-1.78,3.59-3.7,7.45-5.75,11.53l-30.13,60.51c-13.33,26.76-27.18,54.59-38.24,76.97-.33.67-.29,1.44.1,2.07.4.64,1.09,1.02,1.84,1.02.2,0,.39-.03.59-.08l200.92-55.4c.75-.21,1.31-.77,1.52-1.51Z"/>
        <path class="cls-1" d="M362.37,238.72c-.53.76-.6,1.69-.18,2.5s1.27,1.33,2.15,1.33c.43,0,.86-.12,1.25-.35,7.08-4.23,20.64-12.42,31.81-19.82,5.72-3.91,2.67-10.75-.28-17.35l-.24-.54c-.99-2.11-1.89-3.81-2.67-5.03-.45-.71-1.22-1.13-2.06-1.13-.73,0-1.41.33-1.87.89-1.42,1.74-3.27,4.36-4.3,5.84l-23.61,33.66Z"/>
        <path class="cls-1" d="M325.66,367.49l-1.3-1.11c-25.26-21.77-49.11-42.33-58.44-50.75-.6-.55-1.12-.98-1.72-1.26l-.83-.39-.52.76c-.2.3-.45.71-.73,1.27-2.34,4.63-7.1,16.31-9.54,24.78-3.91,12.54,2.97,25.9,10.26,37.38l.23.31c1.86,2.59,4.42,4.01,7.95,5.46,3.93,1.65,9.55,3.98,16.59,6.89l68.48,28.34c9.15,3.74,18.68,7.71,26.38,10.93l2.91,1.21c5.26,2.19,10.37,4.33,15.36,6.39.25.1.5.15.76.15.79,0,1.52-.51,1.81-1.27.29-.75.08-1.59-.53-2.13-18.87-16.72-49.82-43.4-77.13-66.94Z"/>
        <path class="cls-1" d="M428.08,420.06c-2.72-19.78-6.76-50.29-10.32-77.21l-.17-1.27c-6.2-46.79-12.61-95.17-15.36-113.48l-.22-1.49-1.74.9c-3.74,2.18-10.95,6.6-19.3,11.72-5.43,3.33-11.59,7.1-18.21,11.13-23.36,14.25-53.65,32.79-77.72,47.52l-14.44,8.9c-.71.43-1.16,1.16-1.23,1.98-.08.81.23,1.59.83,2.14,2.96,2.67,7.67,6.79,13.32,11.72l.38.33c4.91,4.28,10.66,9.31,16.98,14.88l122.7,107.53c.3.26.66.39,1.05.39.71,0,1.33-.45,1.55-1.14,2.07-6.61,2.71-14.82,1.91-24.55Z"/>
        <path class="cls-1" d="M247.58,361.82l-1.13-2.32-.86,2.43c-.33.94-.74,2.11-.97,2.47l-.07.12-.04.13c-.4,1.27-1.01,2.7-1.69,4.28-.42.98-1.07,2.48-1.54,3.79-.23.64-.18,1.35.13,1.95.32.6.88,1.04,1.54,1.21,1.53.39,3.41.72,4.66.93,1.35.23,3.02.51,4.13.83.55.07,1.09.17,1.61.28l2.11.44-.91-1.95c-1.92-4.11-4.82-10.2-6.97-14.61Z"/>
        <path class="cls-1" d="M254.42,322.97c.62-1.64,1.42-3.75,2.12-5.7.27-.76.16-1.56-.3-2.21-.45-.64-1.19-1.03-1.96-1.03-.23,0-.45.03-.67.09-10.44,2.96-30.4,8.46-53.67,14.87l-8.1,2.23c-36.08,9.94-80.98,22.32-113.41,31.42-1.17.33-1.89,1.4-1.75,2.6.14,1.21,1.08,2.09,2.29,2.15,32.71,1.61,75.29,3.41,106.38,4.71l2.73.11c20.31.85,35.23,1.48,42.22,1.83h.08c4.36,0,5.12-2.01,7.18-7.38.53-1.39,1.14-2.96,1.83-4.47,3.3-8.55,8.41-21.9,12.45-32.48l2.59-6.76Z"/>
      </g>
    </g>
  </g>
</svg>